<?xml version="1.0" encoding="UTF-8"?>
<svg version="1.1" xmlns="http://www.w3.org/2000/svg" width="32" height="32">
<path d="M0 0 C0.67546875 0.08378906 1.3509375 0.16757813 2.046875 0.25390625 C2.93890625 0.35574219 3.8309375 0.45757813 4.75 0.5625 C5.63171875 0.66691406 6.5134375 0.77132813 7.421875 0.87890625 C9.88432451 0.99456676 11.66538064 0.73638695 14 0 C14 1.32 14 2.64 14 4 C16.31 4.33 18.62 4.66 21 5 C21 10.94 21 16.88 21 23 C15 23 15 23 12.375 22.375 C9.53973051 21.92732587 8.38761711 22.49668552 6 24 C5.34 23.34 4.68 22.68 4 22 C1.32186601 21.97792512 1.32186601 21.97792512 -1.625 22.375 C-3.39875 22.58125 -5.1725 22.7875 -7 23 C-7 17.06 -7 11.12 -7 5 C-3.535 4.505 -3.535 4.505 0 4 C0 2.68 0 1.36 0 0 Z M2 3 C2.33 3.99 2.66 4.98 3 6 C3.99 5.67 4.98 5.34 6 5 C6 5.66 6 6.32 6 7 C4.68 7.33 3.36 7.66 2 8 C6.12148343 9.82660197 6.12148343 9.82660197 10.375 9.125 C10.91125 8.75375 11.4475 8.3825 12 8 C10.68 7.67 9.36 7.34 8 7 C8 6.34 8 5.68 8 5 C9.32 5.33 10.64 5.66 12 6 C11.67 5.01 11.34 4.02 11 3 C8.03 3 5.06 3 2 3 Z M14 6 C13.73445313 6.63808594 13.46890625 7.27617187 13.1953125 7.93359375 C12.84210937 8.75988281 12.48890625 9.58617187 12.125 10.4375 C11.77695312 11.26121094 11.42890625 12.08492187 11.0703125 12.93359375 C10 15 10 15 8 16 C8.33 17.32 8.66 18.64 9 20 C12.3 20.33 15.6 20.66 19 21 C19 16.38 19 11.76 19 7 C17.35 6.67 15.7 6.34 14 6 Z M-5 7 C-5 11.62 -5 16.24 -5 21 C0.445 20.505 0.445 20.505 6 20 C6 18.68 6 17.36 6 16 C5.38125 15.38125 4.7625 14.7625 4.125 14.125 C1.59402625 11.59402625 0.93090865 9.41333172 0 6 C-1.69967317 6 -3.35107482 6.58776871 -5 7 Z M5 12 C5.33 12.66 5.66 13.32 6 14 C6.99 13.67 7.98 13.34 9 13 C7.68 12.67 6.36 12.34 5 12 Z " fill="#E3E3E3" transform="translate(9,4)"/>
</svg>
