<?xml version="1.0" encoding="UTF-8"?>
<svg version="1.1" xmlns="http://www.w3.org/2000/svg" width="32" height="32">
<path d="M0 0 C1.58206422 0.00574487 3.16410406 0.01876032 4.74609375 0.03515625 C7.53046875 0.05578125 10.31484375 0.07640625 13.18359375 0.09765625 C13.18359375 7.02765625 13.18359375 13.95765625 13.18359375 21.09765625 C15.16359375 20.76765625 17.14359375 20.43765625 19.18359375 20.09765625 C19.51359375 21.41765625 19.84359375 22.73765625 20.18359375 24.09765625 C18.72621273 25.07823977 17.267657 26.05707757 15.80859375 27.03515625 C14.99648438 27.58042969 14.184375 28.12570313 13.34765625 28.6875 C9.64510497 31.10017331 7.5453709 31.18202864 3.12109375 31.09765625 C1.14228517 31.06000948 -0.83778884 31.05103198 -2.81640625 31.09765625 C-3.14640625 31.42765625 -3.47640625 31.75765625 -3.81640625 32.09765625 C-6.19140625 32.47265625 -6.19140625 32.47265625 -8.81640625 32.09765625 C-10.75390625 29.84765625 -10.75390625 29.84765625 -11.81640625 27.09765625 C-11.10181734 24.95388951 -10.40416208 23.68541208 -8.81640625 22.09765625 C-7.1502351 22.05701793 -5.4825253 22.05493525 -3.81640625 22.09765625 C-4.14640625 21.43765625 -4.47640625 20.77765625 -4.81640625 20.09765625 C-4.91145694 18.66131482 -4.94713492 17.2207315 -4.94921875 15.78125 C-4.95050781 14.93498047 -4.95179688 14.08871094 -4.953125 13.21679688 C-4.94925781 12.33185547 -4.94539062 11.44691406 -4.94140625 10.53515625 C-4.94527344 9.64634766 -4.94914063 8.75753906 -4.953125 7.84179688 C-4.95183594 6.99681641 -4.95054687 6.15183594 -4.94921875 5.28125 C-4.94809082 4.50322021 -4.94696289 3.72519043 -4.94580078 2.92358398 C-4.69751489 -0.58005788 -3.65726992 0.09358418 0 0 Z M-1.81640625 2.09765625 C-1.81640625 7.04765625 -1.81640625 11.99765625 -1.81640625 17.09765625 C2.47359375 17.09765625 6.76359375 17.09765625 11.18359375 17.09765625 C11.18359375 12.14765625 11.18359375 7.19765625 11.18359375 2.09765625 C6.89359375 2.09765625 2.60359375 2.09765625 -1.81640625 2.09765625 Z M-1.81640625 19.09765625 C-1.81640625 19.42765625 -1.81640625 19.75765625 -1.81640625 20.09765625 C2.47359375 20.09765625 6.76359375 20.09765625 11.18359375 20.09765625 C11.18359375 19.76765625 11.18359375 19.43765625 11.18359375 19.09765625 C6.89359375 19.09765625 2.60359375 19.09765625 -1.81640625 19.09765625 Z M4.18359375 21.09765625 C8.36267439 23.18719657 8.98769948 23.26318244 13.18359375 22.09765625 C13.18359375 21.76765625 13.18359375 21.43765625 13.18359375 21.09765625 C10.21359375 21.09765625 7.24359375 21.09765625 4.18359375 21.09765625 Z M16.18359375 22.09765625 C14.76046875 23.08765625 14.76046875 23.08765625 13.30859375 24.09765625 C10.18359375 26.09765625 10.18359375 26.09765625 8.18359375 26.09765625 C7.85359375 25.43765625 7.52359375 24.77765625 7.18359375 24.09765625 C3.66299807 22.92412436 0.87710075 22.89619223 -2.81640625 23.09765625 C-3.47640625 23.75765625 -4.13640625 24.41765625 -4.81640625 25.09765625 C-3.17769794 28.23546367 -3.17769794 28.23546367 -0.62890625 28.78515625 C0.29921875 28.88828125 1.22734375 28.99140625 2.18359375 29.09765625 C3.25609375 29.24203125 4.32859375 29.38640625 5.43359375 29.53515625 C10.71255527 28.91927741 14.02688708 26.26467086 18.18359375 23.09765625 C17.52359375 22.76765625 16.86359375 22.43765625 16.18359375 22.09765625 Z " fill="#E3E3E3" transform="translate(11.81640625,-0.09765625)"/>
<path d="M0 0 C3.3 0 6.6 0 10 0 C10.04241723 2.33294775 10.04092937 4.66702567 10 7 C9 8 9 8 6.93359375 8.09765625 C6.10988281 8.08605469 5.28617188 8.07445312 4.4375 8.0625 C3.61121094 8.05347656 2.78492188 8.04445313 1.93359375 8.03515625 C1.29550781 8.02355469 0.65742188 8.01195312 0 8 C0 5.36 0 2.72 0 0 Z " fill="#E5E5E5" transform="translate(12,6)"/>
</svg>
