<?xml version="1.0" encoding="UTF-8"?>
<svg version="1.1" xmlns="http://www.w3.org/2000/svg" width="32" height="32">
<path d="M0 0 C7.59 0 15.18 0 23 0 C23 1.32 23 2.64 23 4 C22.34 4 21.68 4 21 4 C21 3.01 21 2.02 21 1 C15.39 1 9.78 1 4 1 C4 7.6 4 14.2 4 21 C10.77077421 20.95054817 10.77077421 20.95054817 16.4375 17.9375 C16.953125 17.298125 17.46875 16.65875 18 16 C18.99 16 19.98 16 21 16 C21 12.37 21 8.74 21 5 C21.66 5 22.32 5 23 5 C23 8.63 23 12.26 23 16 C24.65 16.33 26.3 16.66 28 17 C28 17.99 28 18.98 28 20 C28.66 20 29.32 20 30 20 C30.48 27.2 30.48 27.2 28.5 30.5 C24.77354157 32.73587506 22.32088243 32.41151261 18 32 C17.01 31.34 16.02 30.68 15 30 C15 29.34 15 28.68 15 28 C14.00097656 28.01160156 13.00195312 28.02320312 11.97265625 28.03515625 C10.68230469 28.04417969 9.39195313 28.05320312 8.0625 28.0625 C6.77472656 28.07410156 5.48695312 28.08570312 4.16015625 28.09765625 C1 28 1 28 0 27 C-0.08758003 25.00035018 -0.10696576 22.9976389 -0.09765625 20.99609375 C-0.09443359 19.78115234 -0.09121094 18.56621094 -0.08789062 17.31445312 C-0.07951172 16.03505859 -0.07113281 14.75566406 -0.0625 13.4375 C-0.05798828 12.15423828 -0.05347656 10.87097656 -0.04882812 9.54882812 C-0.03699555 6.3658658 -0.01905944 3.18292726 0 0 Z M1 3 C1 8.94 1 14.88 1 21 C1.33 21 1.66 21 2 21 C2 15.06 2 9.12 2 3 C1.67 3 1.34 3 1 3 Z M21 17 C23.21934164 20.32901247 24.34683329 20.75023244 28 22 C27.67 21.01 27.34 20.02 27 19 C23.99152582 17.77479736 23.99152582 17.77479736 21 17 Z M19 21 C19.66 21.66 20.32 22.32 21 23 C21 22.34 21 21.68 21 21 C20.34 21 19.68 21 19 21 Z M2 23 C2 23.33 2 23.66 2 24 C5.63 24 9.26 24 13 24 C13 23.67 13 23.34 13 23 C9.37 23 5.74 23 2 23 Z M15 23 C15.66 24.98 16.32 26.96 17 29 C17.66 28.34 18.32 27.68 19 27 C21.625 26.375 21.625 26.375 24 26 C23.67 25.34 23.34 24.68 23 24 C21.10466658 23.53476937 21.10466658 23.53476937 18.9375 23.375 C17.638125 23.25125 16.33875 23.1275 15 23 Z M2 25 C2 25.33 2 25.66 2 26 C5.96 26 9.92 26 14 26 C14 25.67 14 25.34 14 25 C10.04 25 6.08 25 2 25 Z " fill="#E3E3E3" transform="translate(1,0)"/>
<path d="M0 0 C1.51400391 0.01740234 1.51400391 0.01740234 3.05859375 0.03515625 C4.07050781 0.04417969 5.08242187 0.05320313 6.125 0.0625 C7.29869141 0.07990234 7.29869141 0.07990234 8.49609375 0.09765625 C8.49609375 2.73765625 8.49609375 5.37765625 8.49609375 8.09765625 C6.68367323 8.12452904 4.87114142 8.1439934 3.05859375 8.16015625 C2.04925781 8.17175781 1.03992188 8.18335938 0 8.1953125 C-2.50390625 8.09765625 -2.50390625 8.09765625 -3.50390625 7.09765625 C-3.62890625 4.09765625 -3.62890625 4.09765625 -3.50390625 1.09765625 C-2.50390625 0.09765625 -2.50390625 0.09765625 0 0 Z M-1.50390625 2.09765625 C-0.50390625 6.09765625 -0.50390625 6.09765625 -0.50390625 6.09765625 Z M6.49609375 2.09765625 C7.49609375 6.09765625 7.49609375 6.09765625 7.49609375 6.09765625 Z " fill="#E3E3E3" transform="translate(10.50390625,1.90234375)"/>
</svg>
