<?xml version="1.0" encoding="UTF-8"?>
<svg version="1.1" xmlns="http://www.w3.org/2000/svg" width="32" height="32">
<path d="M0 0 C-0.33 0.99 -0.66 1.98 -1 3 C-1.99 3 -2.98 3 -4 3 C-3.95875 4.0725 -3.9175 5.145 -3.875 6.25 C-3.9885825 9.65747485 -4.21273364 11.20739631 -6 14 C-5.236875 14.433125 -4.47375 14.86625 -3.6875 15.3125 C-1 17 -1 17 2 20 C2 22.97 2 25.94 2 29 C-6.58 29 -15.16 29 -24 29 C-24 26.03 -24 23.06 -24 20 C-21.37886292 17.37886292 -19.17772443 15.80357333 -16 14 C-17.83883881 11.71271266 -17.83883881 11.71271266 -20.625 11.875 C-21.800625 11.936875 -21.800625 11.936875 -23 12 C-23.19021635 7.24459134 -23.19550651 3.29121726 -21 -1 C-13.7536522 -4.79570599 -6.91092721 -3.4554636 0 0 Z M-17 1 C-13.04 1 -9.08 1 -5 1 C-9.43229352 -1.95486235 -12.56770648 -1.95486235 -17 1 Z M-16 4 C-12.7 4 -9.4 4 -6 4 C-10.09913608 1.26724261 -11.90086392 1.26724261 -16 4 Z M-20 3 C-19.34 4.32 -18.68 5.64 -18 7 C-18 5.68 -18 4.36 -18 3 C-18.66 3 -19.32 3 -20 3 Z M-14 6 C-14 6.66 -14 7.32 -14 8 C-14.99 8.495 -14.99 8.495 -16 9 C-15.02617818 11.51570636 -14.53848865 12.73944098 -12.0625 13.9375 C-9.92650397 14.21530477 -9.92650397 14.21530477 -8.3125 12.75 C-6.79906361 10.9242371 -6.79906361 10.9242371 -6 8 C-6.66 8 -7.32 8 -8 8 C-8 7.34 -8 6.68 -8 6 C-9.98 6 -11.96 6 -14 6 Z M-21 8 C-20 10 -20 10 -20 10 Z M-13 16 C-9 17 -9 17 -9 17 Z M-8 17 C-7.67 17.66 -7.34 18.32 -7 19 C-6.67 18.34 -6.34 17.68 -6 17 C-6.66 17 -7.32 17 -8 17 Z M-20 19 C-22.41121859 20.95633975 -22.41121859 20.95633975 -22.125 24.625 C-22.08375 25.73875 -22.0425 26.8525 -22 28 C-21.34 28 -20.68 28 -20 28 C-20 27.01 -20 26.02 -20 25 C-19.34 25 -18.68 25 -18 25 C-18 25.99 -18 26.98 -18 28 C-13.38 28 -8.76 28 -4 28 C-4 27.01 -4 26.02 -4 25 C-3.34 25 -2.68 25 -2 25 C-2 25.99 -2 26.98 -2 28 C-1.34 28 -0.68 28 0 28 C0.16677282 24.58343976 0.16677282 24.58343976 0 21 C-0.66 20.34 -1.32 19.68 -2 19 C-4.52806178 19.36115168 -6.58087112 20.2471792 -8.9375 21.25 C-12 22 -12 22 -14.6875 20.625 C-15.450625 20.08875 -16.21375 19.5525 -17 19 C-17.99 19 -18.98 19 -20 19 Z " fill="#E3E3E3" transform="translate(27,3)"/>
</svg>
